<svg width="100%" height="100%" preserveAspectRatio="none" viewBox="0 0 1920 236" fill="none" xmlns="http://www.w3.org/2000/svg">
<g clip-path="url(#clip0_57_333)">
<path d="M0 160.48L40.0593 146.556C80.237 132.514 160.356 104.666 240.356 87.32C320.356 69.974 400.237 63.366 480.237 81.42C560.237 99.474 640.356 142.426 720.356 150.45C800.356 158.474 880.237 131.806 960.237 131.806C1040.24 131.806 1120.36 158.474 1200.36 171.454C1280.36 184.434 1360.24 183.726 1440.24 165.2C1520.24 146.674 1600.36 110.566 1680.36 102.896C1760.36 95.226 1840.24 115.994 1880.06 126.496L1920 136.88V237.18H1880.06C1840.24 237.18 1760.36 237.18 1680.36 237.18C1600.36 237.18 1520.24 237.18 1440.24 237.18C1360.24 237.18 1280.36 237.18 1200.36 237.18C1120.36 237.18 1040.24 237.18 960.237 237.18C880.237 237.18 800.356 237.18 720.356 237.18C640.356 237.18 560.237 237.18 480.237 237.18C400.237 237.18 320.356 237.18 240.356 237.18C160.356 237.18 80.237 237.18 40.0593 237.18H0V160.48Z" fill="#F0D4B2"/>
</g>
<defs>
<clipPath id="clip0_57_333">
<rect width="1920" height="236" fill="white"/>
</clipPath>
</defs>
</svg>
