<svg width="1920" height="115" viewBox="0 0 1920 115" fill="none" xmlns="http://www.w3.org/2000/svg">
<g clip-path="url(#clip0_57_329)">
<path d="M0 78.2L40.0593 71.415C80.237 64.5725 160.356 51.0025 240.356 42.55C320.356 34.0975 400.237 30.8775 480.237 39.675C560.237 48.4725 640.356 69.4025 720.356 73.3125C800.356 77.2225 880.237 64.2275 960.237 64.2275C1040.24 64.2275 1120.36 77.2225 1200.36 83.5475C1280.36 89.8725 1360.24 89.5275 1440.24 80.5C1520.24 71.4725 1600.36 53.8775 1680.36 50.14C1760.36 46.4025 1840.24 56.5225 1880.06 61.64L1920 66.7V115.575H1880.06C1840.24 115.575 1760.36 115.575 1680.36 115.575C1600.36 115.575 1520.24 115.575 1440.24 115.575C1360.24 115.575 1280.36 115.575 1200.36 115.575C1120.36 115.575 1040.24 115.575 960.237 115.575C880.237 115.575 800.356 115.575 720.356 115.575C640.356 115.575 560.237 115.575 480.237 115.575C400.237 115.575 320.356 115.575 240.356 115.575C160.356 115.575 80.237 115.575 40.0593 115.575H0V78.2Z" fill="#F0D4B2"/>
</g>
<defs>
<clipPath id="clip0_57_329">
<rect width="1920" height="115" fill="white"/>
</clipPath>
</defs>
</svg>
