<svg width="150" height="150" viewBox="0 0 150 150" fill="none" xmlns="http://www.w3.org/2000/svg">
<g clip-path="url(#clip0_57_292)">
<mask id="mask0_57_292" style="mask-type:luminance" maskUnits="userSpaceOnUse" x="0" y="0" width="150" height="150">
<path d="M0.625 0.625H149.375V149.375H0.625V0.625Z" fill="white" stroke="white" stroke-width="1.25"/>
</mask>
<g mask="url(#mask0_57_292)">
<g filter="url(#filter0_d_57_292)">
<path d="M20.6001 128.762L60.3751 88.9875M110.463 71.3L98.5563 107.019C98.3663 107.591 98.041 108.11 97.6079 108.53C97.1749 108.95 96.6469 109.259 96.0688 109.431L23.0813 131.125C22.4237 131.32 21.7252 131.331 21.0617 131.157C20.3983 130.983 19.7953 130.63 19.3183 130.137C18.8414 129.644 18.5089 129.03 18.3569 128.361C18.2049 127.692 18.2393 126.994 18.4563 126.344L42.1563 55.2562C42.3262 54.7458 42.6038 54.2779 42.9705 53.8843C43.3372 53.4907 43.7842 53.1805 44.2813 52.975L77.9501 39.1125C78.6345 38.8298 79.3874 38.7561 80.1137 38.9007C80.84 39.0453 81.5073 39.4017 82.0313 39.925L109.556 67.4562C110.05 67.9492 110.396 68.5701 110.556 69.2491C110.716 69.9282 110.684 70.6384 110.463 71.3Z" stroke="#E76F51" stroke-width="12" stroke-linecap="round" stroke-linejoin="round"/>
<path d="M111.2 69.0999L128.875 51.4187C131.218 49.0746 132.535 45.8957 132.535 42.5812C132.535 39.2666 131.218 36.0878 128.875 33.7437L115.625 20.4812C114.464 19.3199 113.086 18.3987 111.569 17.7702C110.052 17.1417 108.426 16.8182 106.784 16.8182C105.143 16.8182 103.517 17.1417 102 17.7702C100.483 18.3987 99.1047 19.3199 97.9439 20.4812L80.2689 38.1624M73.6314 75.7249C72.7605 74.8545 71.7268 74.1641 70.5892 73.6932C69.4515 73.2223 68.2323 72.9801 67.001 72.9804C65.7698 72.9807 64.5506 73.2235 63.4132 73.6949C62.2758 74.1664 61.2424 74.8572 60.372 75.7281C59.5016 76.5989 58.8112 77.6326 58.3403 78.7703C57.8694 79.9079 57.6272 81.1272 57.6274 82.3584C57.6277 83.5897 57.8705 84.8088 58.342 85.9462C58.8134 87.0836 59.5043 88.117 60.3751 88.9874C62.1338 90.7453 64.5188 91.7326 67.0054 91.732C69.4921 91.7314 71.8766 90.743 73.6345 88.9843C75.3924 87.2256 76.3796 84.8406 76.379 82.354C76.3784 79.8674 75.3901 77.4828 73.6314 75.7249Z" stroke="#E76F51" stroke-width="12" stroke-linecap="round" stroke-linejoin="round"/>
</g>
</g>
</g>
<defs>
<filter id="filter0_d_57_292" x="8.26367" y="10.8182" width="134.271" height="134.462" filterUnits="userSpaceOnUse" color-interpolation-filters="sRGB">
<feFlood flood-opacity="0" result="BackgroundImageFix"/>
<feColorMatrix in="SourceAlpha" type="matrix" values="0 0 0 0 0 0 0 0 0 0 0 0 0 0 0 0 0 0 127 0" result="hardAlpha"/>
<feOffset dy="4"/>
<feGaussianBlur stdDeviation="2"/>
<feComposite in2="hardAlpha" operator="out"/>
<feColorMatrix type="matrix" values="0 0 0 0 0 0 0 0 0 0 0 0 0 0 0 0 0 0 0.25 0"/>
<feBlend mode="normal" in2="BackgroundImageFix" result="effect1_dropShadow_57_292"/>
<feBlend mode="normal" in="SourceGraphic" in2="effect1_dropShadow_57_292" result="shape"/>
</filter>
<clipPath id="clip0_57_292">
<rect width="150" height="150" fill="white"/>
</clipPath>
</defs>
</svg>
