<svg width="30" height="30" viewBox="0 0 30 30" fill="none" xmlns="http://www.w3.org/2000/svg">
<path d="M15 5C20.5125 5 25 9.4875 25 15C25 20.5125 20.5125 25 15 25C9.4875 25 5 20.5125 5 15C5 9.4875 9.4875 5 15 5ZM15 2.5C8.1 2.5 2.5 8.1 2.5 15C2.5 21.9 8.1 27.5 15 27.5C21.9 27.5 27.5 21.9 27.5 15C27.5 8.1 21.9 2.5 15 2.5ZM16.25 15V11.25C16.25 10.5625 15.6875 10 15 10C14.3125 10 13.75 10.5625 13.75 11.25V15H11.5125C10.95 15 10.675 15.675 11.075 16.0625L14.5625 19.55C14.8125 19.8 15.2 19.8 15.45 19.55L18.9375 16.0625C19.0232 15.9751 19.0813 15.8646 19.1047 15.7445C19.1281 15.6244 19.1157 15.5001 19.0691 15.387C19.0226 15.2738 18.9438 15.1769 18.8426 15.1081C18.7415 15.0393 18.6223 15.0017 18.5 15H16.25Z" fill="black"/>
</svg>
