<svg width="30" height="30" viewBox="0 0 30 30" fill="none" xmlns="http://www.w3.org/2000/svg">
<path d="M24.0373 19.075L20.8623 18.7125C20.489 18.6686 20.1106 18.7099 19.7555 18.8333C19.4004 18.9567 19.078 19.159 18.8123 19.425L16.5123 21.725C12.9638 19.9202 10.0795 17.036 8.27481 13.4875L10.5873 11.175C11.1248 10.6375 11.3873 9.88745 11.2998 9.12495L10.9373 5.97495C10.8664 5.36517 10.5738 4.80275 10.1151 4.39476C9.65641 3.98678 9.06369 3.76172 8.44981 3.76245H6.28731C4.87481 3.76245 3.69981 4.93745 3.78731 6.34995C4.44981 17.025 12.9873 25.55 23.6498 26.2125C25.0623 26.3 26.2373 25.125 26.2373 23.7125V21.55C26.2498 20.2875 25.2998 19.225 24.0373 19.075Z" fill="#2E251E"/>
</svg>
