<svg width="55" height="55" viewBox="0 0 55 55" fill="none" xmlns="http://www.w3.org/2000/svg">
<g clip-path="url(#clip0_57_314)">
<path d="M17.2248 9.43167L15.9094 6.25583C15.6477 5.62412 15.6477 4.91433 15.9094 4.28262C16.171 3.65091 16.6729 3.14901 17.3046 2.88735C17.9363 2.62568 18.6461 2.62568 19.2778 2.88735C19.9096 3.14901 20.4114 3.65091 20.6731 4.28262L21.9886 7.45846C22.2503 8.09017 22.2502 8.79996 21.9886 9.43167C21.7269 10.0634 21.225 10.5653 20.5933 10.8269C19.9616 11.0886 19.2518 11.0886 18.6201 10.8269C17.9884 10.5653 17.4865 10.0634 17.2248 9.43167ZM40.9969 21.9093C42.1026 24.5788 42.3919 27.5163 41.8282 30.3502C41.2645 33.1842 39.8731 35.7873 37.8299 37.8305C35.7868 39.8736 33.1836 41.265 30.3497 41.8287C27.5158 42.3925 24.5783 42.1031 21.9088 40.9974C19.2393 39.8916 16.9576 38.0191 15.3523 35.6166C13.747 33.2141 12.8902 30.3895 12.8902 27.5001C12.8902 24.6106 13.747 21.786 15.3523 19.3835C16.9576 16.981 19.2393 15.1085 21.9088 14.0028C25.4889 12.5242 29.5094 12.5262 33.0879 14.0085C36.6665 15.4908 39.5109 18.3323 40.9969 21.9093ZM36.2331 23.8825C35.5176 22.1552 34.306 20.6788 32.7514 19.6401C31.1969 18.6014 29.3692 18.047 27.4996 18.047C25.6299 18.047 23.8022 18.6014 22.2477 19.6401C20.6931 20.6788 19.4815 22.1552 18.766 23.8825C18.0505 25.6099 17.8633 27.5106 18.2281 29.3443C18.5928 31.178 19.4931 32.8624 20.8152 34.1845C22.1372 35.5065 23.8216 36.4068 25.6553 36.7716C27.4891 37.1363 29.3898 36.9491 31.1171 36.2336C33.4315 35.2719 35.2699 33.4314 36.229 31.1159C37.1881 28.8005 37.1896 26.1991 36.2331 23.8825ZM7.42433 21.9767C7.73766 22.1065 8.07349 22.1733 8.41265 22.1733C8.7518 22.1733 9.08763 22.1065 9.40096 21.9767C9.7143 21.847 9.999 21.6567 10.2388 21.4169C10.4786 21.1771 10.6689 20.8924 10.7987 20.5791C10.9284 20.2657 10.9952 19.9299 10.9952 19.5907C10.9952 19.2516 10.9284 18.9158 10.7987 18.6024C10.6689 18.2891 10.4786 18.0044 10.2388 17.7646C9.999 17.5247 9.7143 17.3345 9.40096 17.2047L6.03248 15.8095C5.39967 15.5473 4.68865 15.5473 4.05585 15.8095C3.42304 16.0716 2.92027 16.5743 2.65815 17.2071C2.39604 17.84 2.39604 18.551 2.65815 19.1838C2.92027 19.8166 3.42304 20.3194 4.05585 20.5815L7.42433 21.9767ZM17.2082 45.597L15.8129 48.9655C15.6831 49.2788 15.6163 49.6147 15.6163 49.9538C15.6163 50.293 15.6831 50.6288 15.8129 50.9421C15.9427 51.2555 16.1329 51.5402 16.3727 51.78C16.6126 52.0198 16.8973 52.2101 17.2106 52.3398C17.8434 52.602 18.5544 52.602 19.1872 52.3398C19.5006 52.2101 19.7853 52.0198 20.0251 51.78C20.2649 51.5402 20.4551 51.2555 20.5849 50.9421L21.9802 47.5737C22.2423 46.9409 22.2423 46.2298 21.9802 45.597C21.7181 44.9642 21.2153 44.4615 20.5825 44.1993C19.9497 43.9372 19.2387 43.9372 18.6059 44.1993C17.9731 44.4615 17.4703 44.9642 17.2082 45.597ZM36.3927 10.7939C36.7057 10.6645 36.9901 10.4748 37.2298 10.2355C37.4694 9.99616 37.6595 9.71198 37.7893 9.39916L39.1846 6.03068C39.3144 5.71734 39.3812 5.38152 39.3812 5.04236C39.3812 4.70321 39.3144 4.36738 39.1846 4.05405C39.0548 3.74071 38.8645 3.45601 38.6247 3.21619C38.3849 2.97637 38.1002 2.78614 37.7869 2.65635C37.4735 2.52657 37.1377 2.45977 36.7986 2.45977C36.4594 2.45977 36.1236 2.52657 35.8102 2.65635C35.4969 2.78614 35.2122 2.97637 34.9724 3.21619C34.7326 3.45601 34.5423 3.74071 34.4126 4.05405L33.0173 7.42253C32.8202 7.89448 32.7679 8.41439 32.8671 8.91613C32.9663 9.41788 33.2125 9.87878 33.5743 10.2402C33.9362 10.6017 34.3974 10.8473 34.8993 10.9459C35.4011 11.0445 35.921 10.9916 36.3927 10.7939ZM47.5748 33.0234C46.942 32.7613 46.231 32.7613 45.5981 33.0234C44.9653 33.2855 44.4626 33.7883 44.2005 34.4211C43.9383 35.0539 43.9383 35.7649 44.2005 36.3977C44.4626 37.0306 44.9653 37.5333 45.5981 37.7954L48.9666 39.1907C49.5994 39.4528 50.3105 39.4528 50.9433 39.1907C51.5761 38.9286 52.0788 38.4258 52.341 37.793C52.6031 37.1602 52.6031 36.4492 52.341 35.8164C52.0788 35.1836 51.5761 34.6808 50.9433 34.4187L47.5748 33.0234ZM10.8264 34.4063C10.5647 33.7746 10.0629 33.2727 9.43114 33.0111C8.79943 32.7494 8.08964 32.7494 7.45793 33.0111L4.28209 34.3265C3.65038 34.5882 3.14849 35.0901 2.88682 35.7218C2.62516 36.3535 2.62516 37.0633 2.88682 37.695C3.14849 38.3267 3.65038 38.8286 4.28209 39.0903C4.91381 39.3519 5.62359 39.3519 6.25531 39.0903L9.43114 37.7748C10.0629 37.5131 10.5647 37.0112 10.8264 36.3795C11.0881 35.7478 11.0881 35.038 10.8264 34.4063ZM34.4058 44.1732C33.7741 44.4349 33.2722 44.9368 33.0105 45.5685C32.7489 46.2002 32.7489 46.91 33.0105 47.5417L34.326 50.7175C34.5877 51.3493 35.0896 51.8512 35.7213 52.1128C36.353 52.3745 37.0628 52.3745 37.6945 52.1128C38.3262 51.8512 38.8281 51.3493 39.0898 50.7175C39.3514 50.0858 39.3514 49.376 39.0898 48.7443L37.7743 45.5685C37.5126 44.9368 37.0107 44.4349 36.379 44.1732C35.7473 43.9116 35.0375 43.9116 34.4058 44.1732ZM48.7438 15.9099L45.568 17.2254C44.9363 17.487 44.4344 17.9889 44.1727 18.6206C43.911 19.2523 43.911 19.9621 44.1727 20.5938C44.4344 21.2256 44.9363 21.7274 45.568 21.9891C46.1997 22.2508 46.9095 22.2508 47.5412 21.9891L50.717 20.6736C51.3487 20.412 51.8506 19.9101 52.1123 19.2784C52.374 18.6466 52.374 17.9369 52.1123 17.3052C51.8506 16.6734 51.3487 16.1715 50.717 15.9099C50.0853 15.6482 49.3755 15.6482 48.7438 15.9099Z" fill="#2E251E"/>
</g>
<defs>
<clipPath id="clip0_57_314">
<rect width="55" height="55" fill="white"/>
</clipPath>
</defs>
</svg>
