<svg width="55" height="55" viewBox="0 0 55 55" fill="none" xmlns="http://www.w3.org/2000/svg">
<path d="M51.5625 31.7969H43.8045C43.8195 31.5111 43.8281 31.2254 43.8281 30.9375C43.8281 26.607 42.1078 22.4539 39.0457 19.3918C35.9836 16.3296 31.8305 14.6094 27.5 14.6094C23.1695 14.6094 19.0164 16.3296 15.9543 19.3918C12.8922 22.4539 11.1719 26.607 11.1719 30.9375C11.1719 31.2254 11.1719 31.5111 11.1955 31.7969H3.4375C2.75374 31.7969 2.09798 32.0685 1.61449 32.552C1.131 33.0355 0.859375 33.6912 0.859375 34.375C0.859375 35.0588 1.131 35.7145 1.61449 36.198C2.09798 36.6815 2.75374 36.9531 3.4375 36.9531H51.5625C52.2463 36.9531 52.902 36.6815 53.3855 36.198C53.869 35.7145 54.1406 35.0588 54.1406 34.375C54.1406 33.6912 53.869 33.0355 53.3855 32.552C52.902 32.0685 52.2463 31.7969 51.5625 31.7969ZM16.3281 30.9375C16.3281 27.9745 17.5052 25.1329 19.6003 23.0378C21.6954 20.9427 24.537 19.7656 27.5 19.7656C30.463 19.7656 33.3046 20.9427 35.3997 23.0378C37.4948 25.1329 38.6719 27.9745 38.6719 30.9375C38.6719 31.2254 38.6568 31.5111 38.6354 31.7969H16.3646C16.3432 31.5111 16.3281 31.2254 16.3281 30.9375ZM47.2656 42.9687C47.2656 43.6525 46.994 44.3083 46.5105 44.7917C46.027 45.2752 45.3713 45.5469 44.6875 45.5469H10.3125C9.62874 45.5469 8.97298 45.2752 8.48949 44.7917C8.006 44.3083 7.73438 43.6525 7.73438 42.9687C7.73438 42.285 8.006 41.6292 8.48949 41.1457C8.97298 40.6622 9.62874 40.3906 10.3125 40.3906H44.6875C45.3713 40.3906 46.027 40.6622 46.5105 41.1457C46.994 41.6292 47.2656 42.285 47.2656 42.9687ZM2.71133 19.8107C2.92755 19.1625 3.39229 18.6266 4.00341 18.3208C4.61454 18.0151 5.32207 17.9644 5.97051 18.1801L8.54863 19.0394C8.87332 19.1436 9.17413 19.311 9.43365 19.5322C9.69317 19.7533 9.90624 20.0238 10.0605 20.3278C10.2148 20.6319 10.3073 20.9635 10.3325 21.3036C10.3578 21.6436 10.3153 21.9853 10.2076 22.3088C10.0999 22.6323 9.92913 22.9312 9.70511 23.1883C9.4811 23.4453 9.20832 23.6554 8.90257 23.8063C8.59682 23.9572 8.26417 24.046 7.92388 24.0675C7.58359 24.0889 7.24242 24.0427 6.92012 23.9314L4.34199 23.0721C4.02077 22.965 3.72377 22.7957 3.46797 22.5739C3.21217 22.3521 3.00257 22.082 2.85115 21.7792C2.69973 21.4763 2.60944 21.1466 2.58545 20.8089C2.56146 20.4711 2.60423 20.1319 2.71133 19.8107ZM14.7426 9.41015C14.6254 9.08661 14.5742 8.74289 14.592 8.39925C14.6098 8.05562 14.6962 7.71902 14.8461 7.40929C14.996 7.09957 15.2064 6.82298 15.4649 6.59585C15.7234 6.36871 16.0247 6.19561 16.3511 6.08675C16.6775 5.9779 17.0224 5.93549 17.3655 5.96202C17.7086 5.98856 18.0429 6.0835 18.3487 6.24125C18.6545 6.39901 18.9256 6.61638 19.1461 6.88057C19.3666 7.14475 19.5319 7.45039 19.6324 7.77948L20.4918 10.3576C20.6089 10.6812 20.6601 11.0249 20.6423 11.3685C20.6246 11.7121 20.5382 12.0487 20.3883 12.3585C20.2384 12.6682 20.028 12.9448 19.7695 13.1719C19.511 13.399 19.2097 13.5721 18.8833 13.681C18.5568 13.7899 18.2119 13.8323 17.8689 13.8057C17.5258 13.7792 17.1915 13.6843 16.8857 13.5265C16.5799 13.3687 16.3088 13.1514 16.0883 12.8872C15.8678 12.623 15.7025 12.3174 15.602 11.9883L14.7426 9.41015ZM44.8207 22.3008C44.7136 21.9796 44.6708 21.6404 44.6948 21.3027C44.7188 20.9649 44.8091 20.6352 44.9605 20.3324C45.112 20.0295 45.3215 19.7595 45.5773 19.5376C45.8331 19.3158 46.1301 19.1465 46.4514 19.0394L49.0295 18.1801C49.6759 17.9728 50.378 18.0289 50.9833 18.336C51.5886 18.6432 52.0484 19.1767 52.2628 19.8208C52.4772 20.4648 52.4289 21.1675 52.1285 21.7762C51.828 22.3849 51.2997 22.8505 50.658 23.0721L48.0799 23.9314C47.4314 24.1471 46.7239 24.0964 46.1128 23.7907C45.5017 23.4849 45.0369 22.949 44.8207 22.3008ZM34.5082 10.3576L35.3676 7.77948C35.4681 7.45039 35.6334 7.14475 35.8539 6.88057C36.0744 6.61638 36.3455 6.39901 36.6513 6.24125C36.9571 6.0835 37.2914 5.98856 37.6345 5.96202C37.9776 5.93549 38.3225 5.9779 38.6489 6.08675C38.9753 6.19561 39.2766 6.36871 39.5351 6.59585C39.7936 6.82298 40.004 7.09957 40.1539 7.40929C40.3038 7.71902 40.3902 8.05562 40.408 8.39925C40.4258 8.74289 40.3746 9.08661 40.2574 9.41015L39.398 11.9883C39.2975 12.3174 39.1322 12.623 38.9117 12.8872C38.6912 13.1514 38.4201 13.3687 38.1143 13.5265C37.8085 13.6843 37.4742 13.7792 37.1311 13.8057C36.7881 13.8323 36.4432 13.7899 36.1167 13.681C35.7903 13.5721 35.489 13.399 35.2305 13.1719C34.972 12.9448 34.7616 12.6682 34.6117 12.3585C34.4618 12.0487 34.3754 11.7121 34.3577 11.3685C34.3399 11.0249 34.3911 10.6812 34.5082 10.3576Z" fill="#2E251E"/>
</svg>
